<svg width="20" height="21" viewBox="0 0 20 21" fill="none" xmlns="http://www.w3.org/2000/svg">
  <path d="M14.0408 9.5406C14.4313 9.15008 14.4313 8.51691 14.0408 8.12639C13.6502 7.73586 13.0171 7.73586 12.6266 8.12639L14.0408 9.5406ZM10.0003 12.1668L9.29322 12.8739C9.48075 13.0615 9.73511 13.1668 10.0003 13.1668C10.2655 13.1668 10.5199 13.0615 10.7074 12.8739L10.0003 12.1668ZM7.3741 8.12639C6.98357 7.73586 6.35041 7.73586 5.95989 8.12639C5.56936 8.51691 5.56936 9.15008 5.95989 9.5406L7.3741 8.12639ZM12.6266 8.12639L9.29322 11.4597L10.7074 12.8739L14.0408 9.5406L12.6266 8.12639ZM10.7074 11.4597L7.3741 8.12639L5.95989 9.5406L9.29322 12.8739L10.7074 11.4597Z" fill="#1A1A1A" />
</svg>
  