<svg width="24" height="25" viewBox="0 0 24 25" fill="none" xmlns="http://www.w3.org/2000/svg">
  <path d="M9.47 15.7799C9.28 15.7799 9.09 15.7099 8.94 15.5599C8.12 14.7399 7.67 13.6499 7.67 12.4999C7.67 10.1099 9.61 8.16992 12 8.16992C13.15 8.16992 14.24 8.61992 15.06 9.43992C15.2 9.57992 15.28 9.76992 15.28 9.96992C15.28 10.1699 15.2 10.3599 15.06 10.4999L10 15.5599C9.85 15.7099 9.66 15.7799 9.47 15.7799ZM12 9.66992C10.44 9.66992 9.17 10.9399 9.17 12.4999C9.17 12.9999 9.3 13.4799 9.54 13.8999L13.4 10.0399C12.98 9.79992 12.5 9.66992 12 9.66992Z" fill="#A6A6A6" />
  <path d="M5.6 19.01C5.43 19.01 5.25 18.95 5.11 18.83C4.04 17.92 3.08 16.8 2.26 15.5C1.2 13.85 1.2 11.16 2.26 9.49998C4.7 5.67998 8.25 3.47998 12 3.47998C14.2 3.47998 16.37 4.23998 18.27 5.66998C18.6 5.91998 18.67 6.38998 18.42 6.71998C18.17 7.04998 17.7 7.11998 17.37 6.86998C15.73 5.62998 13.87 4.97998 12 4.97998C8.77 4.97998 5.68 6.91998 3.52 10.31C2.77 11.48 2.77 13.52 3.52 14.69C4.27 15.86 5.13 16.87 6.08 17.69C6.39 17.96 6.43 18.43 6.16 18.75C6.02 18.92 5.81 19.01 5.6 19.01Z" fill="#A6A6A6" />
  <path d="M12 21.52C10.67 21.52 9.37 21.25 8.12 20.72C7.74 20.56 7.56 20.12 7.72 19.74C7.88 19.36 8.32 19.18 8.7 19.34C9.76 19.79 10.87 20.02 11.99 20.02C15.22 20.02 18.31 18.08 20.47 14.69C21.22 13.52 21.22 11.48 20.47 10.31C20.16 9.82 19.82 9.35 19.46 8.91C19.2 8.59 19.25 8.12 19.57 7.85C19.89 7.59 20.36 7.63 20.63 7.96C21.02 8.44 21.4 8.96 21.74 9.5C22.8 11.15 22.8 13.84 21.74 15.5C19.3 19.32 15.75 21.52 12 21.52Z" fill="#A6A6A6" />
  <path d="M12.69 16.7699C12.34 16.7699 12.02 16.5199 11.95 16.1599C11.87 15.7499 12.14 15.3599 12.55 15.2899C13.65 15.0899 14.57 14.1699 14.77 13.0699C14.85 12.6599 15.24 12.3999 15.65 12.4699C16.06 12.5499 16.33 12.9399 16.25 13.3499C15.93 15.0799 14.55 16.4499 12.83 16.7699C12.78 16.7599 12.74 16.7699 12.69 16.7699Z" fill="#A6A6A6" />
  <path d="M2 23.2502C1.81 23.2502 1.62 23.1802 1.47 23.0302C1.18 22.7402 1.18 22.2602 1.47 21.9702L8.94 14.5002C9.23 14.2102 9.71 14.2102 10 14.5002C10.29 14.7902 10.29 15.2702 10 15.5602L2.53 23.0302C2.38 23.1802 2.19 23.2502 2 23.2502Z" fill="#A6A6A6" />
  <path d="M14.53 10.7199C14.34 10.7199 14.15 10.6499 14 10.4999C13.71 10.2099 13.71 9.72994 14 9.43994L21.47 1.96994C21.76 1.67994 22.24 1.67994 22.53 1.96994C22.82 2.25994 22.82 2.73994 22.53 3.02994L15.06 10.4999C14.91 10.6499 14.72 10.7199 14.53 10.7199Z" fill="#A6A6A6" />
</svg>
  